<svg width="64" height="64" viewBox="0 0 64 64" fill="none" xmlns="http://www.w3.org/2000/svg">
<path d="M31.995 64C14.3565 64 0 49.6559 0 32.0101C0 14.3643 14.3565 0 31.995 0C49.6335 0 64 14.3542 64 32C64 49.6458 49.6435 63.9899 31.995 63.9899V64ZM31.995 1.45958C15.1619 1.45958 1.4598 15.1595 1.4598 32C1.4598 48.8405 15.1619 62.5304 31.995 62.5304C48.8281 62.5304 62.5402 48.8304 62.5402 32C62.5402 15.1695 48.8381 1.45958 31.995 1.45958Z" fill="url(#paint0_linear_6585_2714)"/>
<path d="M31.9945 58.0511C46.3843 58.0511 58.0496 46.3877 58.0496 32.0002C58.0496 17.6126 46.3843 5.94922 31.9945 5.94922C17.6047 5.94922 5.93945 17.6126 5.93945 32.0002C5.93945 46.3877 17.6047 58.0511 31.9945 58.0511Z" fill="url(#paint1_linear_6585_2714)"/>
<path fill-rule="evenodd" clip-rule="evenodd" d="M17.6724 19.2435L21.8038 16.0967L22.5824 15.8586H41.212L41.9777 16.1096L46.2313 19.2564L46.759 20.2924V44.7457L46.4051 45.6338L43.2969 48.9221L42.3574 49.3275H21.9839L21.1023 48.98L17.5759 45.6917L17.1641 44.7457V20.2924L17.6724 19.2435ZM19.7381 35.595L22.6146 38.774H22.6507V41.348H21.4756L19.7381 39.4175V44.173L22.4794 46.747H41.7847L44.1657 44.2309V39.263L41.804 41.348H29.806V38.774H40.8452L44.185 35.8074V31.0197L41.8233 33.1111H29.806V30.5371H40.8452L44.185 27.5769V23.1238L41.8233 25.2217H21.5013L19.7381 23.4199V27.3581L22.6146 30.5371H22.6507V33.1111H21.4756L19.7381 31.1806V35.595ZM40.7872 18.4327H23.0136L20.3945 20.434L22.5824 22.6734H40.8452L43.4192 20.3825L40.7872 18.4327Z" fill="white"/>
<path d="M26.2283 34.1182C26.6101 34.1182 26.9834 34.2314 27.3009 34.4435C27.6183 34.6557 27.8658 34.9572 28.0119 35.3099C28.158 35.6627 28.1962 36.0508 28.1218 36.4253C28.0473 36.7998 27.8634 37.1438 27.5934 37.4138C27.3234 37.6838 26.9794 37.8677 26.6049 37.9421C26.2305 38.0166 25.8423 37.9784 25.4895 37.8323C25.1368 37.6862 24.8353 37.4387 24.6231 37.1213C24.411 36.8038 24.2978 36.4305 24.2978 36.0487C24.2978 35.5367 24.5012 35.0457 24.8632 34.6836C25.2253 34.3216 25.7163 34.1182 26.2283 34.1182Z" fill="white"/>
<path d="M23.9529 43.5695L26.228 41.2943L28.5032 43.5695L26.228 45.8446L23.9529 43.5695Z" fill="white"/>
<path d="M26.2283 26.2981L28.1789 27.4242V29.6765L26.2283 30.8026L24.2778 29.6765V27.4242L26.2283 26.2981Z" fill="white"/>
<defs>
<linearGradient id="paint0_linear_6585_2714" x1="31.995" y1="64" x2="31.995" y2="0" gradientUnits="userSpaceOnUse">
<stop stop-color="#FBAC42"/>
<stop offset="1" stop-color="#F26539"/>
</linearGradient>
<linearGradient id="paint1_linear_6585_2714" x1="31.9945" y1="58.0511" x2="31.9945" y2="5.94922" gradientUnits="userSpaceOnUse">
<stop stop-color="#FBAC42"/>
<stop offset="1" stop-color="#F26539"/>
</linearGradient>
</defs>
</svg>
